<?xml version="1.0" encoding="UTF-8" standalone="no"?>
<!DOCTYPE svg PUBLIC "-//W3C//DTD SVG 1.1//EN"
 "http://www.w3.org/Graphics/SVG/1.1/DTD/svg11.dtd">
<!-- Generated by graphviz version 12.2.1 (20241206.2353)
 -->
<!-- Title: include/ThreadPool.hh Pages: 1 -->
<svg width="958pt" height="83pt"
 viewBox="0.00 0.00 958.12 82.50" xmlns="http://www.w3.org/2000/svg" xmlns:xlink="http://www.w3.org/1999/xlink">
<g id="graph0" class="graph" transform="scale(1 1) rotate(0) translate(4 78.5)">
<title>include/ThreadPool.hh</title>
<!-- Node1 -->
<g id="Node000001" class="node">
<title>Node1</title>
<g id="a_Node000001"><a xlink:title=" ">
<polygon fill="#999999" stroke="#666666" points="550.25,-74.5 437.5,-74.5 437.5,-55.25 550.25,-55.25 550.25,-74.5"/>
<text text-anchor="middle" x="493.88" y="-61" font-family="Helvetica,sans-Serif" font-size="10.00">include/ThreadPool.hh</text>
</a>
</g>
</g>
<!-- Node2 -->
<g id="Node000002" class="node">
<title>Node2</title>
<g id="a_Node000002"><a xlink:title=" ">
<polygon fill="#e0e0e0" stroke="#999999" points="55.75,-19.25 0,-19.25 0,0 55.75,0 55.75,-19.25"/>
<text text-anchor="middle" x="27.88" y="-5.75" font-family="Helvetica,sans-Serif" font-size="10.00">algorithm</text>
</a>
</g>
</g>
<!-- Node1&#45;&gt;Node2 -->
<g id="edge1_Node000001_Node000002" class="edge">
<title>Node1&#45;&gt;Node2</title>
<g id="a_edge1_Node000001_Node000002"><a xlink:title=" ">
<path fill="none" stroke="#63b8ff" d="M437.01,-60.24C356.75,-54.61 205.49,-42.15 67.28,-19.45"/>
<polygon fill="#63b8ff" stroke="#63b8ff" points="68.02,-16.03 57.58,-17.83 66.86,-22.93 68.02,-16.03"/>
</a>
</g>
</g>
<!-- Node3 -->
<g id="Node000003" class="node">
<title>Node3</title>
<g id="a_Node000003"><a xlink:title=" ">
<polygon fill="#e0e0e0" stroke="#999999" points="119.5,-19.25 74.25,-19.25 74.25,0 119.5,0 119.5,-19.25"/>
<text text-anchor="middle" x="96.88" y="-5.75" font-family="Helvetica,sans-Serif" font-size="10.00">atomic</text>
</a>
</g>
</g>
<!-- Node1&#45;&gt;Node3 -->
<g id="edge2_Node000001_Node000003" class="edge">
<title>Node1&#45;&gt;Node3</title>
<g id="a_edge2_Node000001_Node000003"><a xlink:title=" ">
<path fill="none" stroke="#63b8ff" d="M437.21,-59.45C367.37,-53.45 244.92,-41.12 130.87,-19.37"/>
<polygon fill="#63b8ff" stroke="#63b8ff" points="131.83,-15.99 121.34,-17.52 130.49,-22.86 131.83,-15.99"/>
</a>
</g>
</g>
<!-- Node4 -->
<g id="Node000004" class="node">
<title>Node4</title>
<g id="a_Node000004"><a xlink:title=" ">
<polygon fill="#e0e0e0" stroke="#999999" points="186,-19.25 137.75,-19.25 137.75,0 186,0 186,-19.25"/>
<text text-anchor="middle" x="161.88" y="-5.75" font-family="Helvetica,sans-Serif" font-size="10.00">cassert</text>
</a>
</g>
</g>
<!-- Node1&#45;&gt;Node4 -->
<g id="edge3_Node000001_Node000004" class="edge">
<title>Node1&#45;&gt;Node4</title>
<g id="a_edge3_Node000001_Node000004"><a xlink:title=" ">
<path fill="none" stroke="#63b8ff" d="M437.07,-57.24C379.1,-50.06 286.36,-37.44 197.42,-19.59"/>
<polygon fill="#63b8ff" stroke="#63b8ff" points="198.3,-16.19 187.8,-17.63 196.9,-23.05 198.3,-16.19"/>
</a>
</g>
</g>
<!-- Node5 -->
<g id="Node000005" class="node">
<title>Node5</title>
<g id="a_Node000005"><a xlink:title=" ">
<polygon fill="#e0e0e0" stroke="#999999" points="247.38,-19.25 204.38,-19.25 204.38,0 247.38,0 247.38,-19.25"/>
<text text-anchor="middle" x="225.88" y="-5.75" font-family="Helvetica,sans-Serif" font-size="10.00">cmath</text>
</a>
</g>
</g>
<!-- Node1&#45;&gt;Node5 -->
<g id="edge4_Node000001_Node000005" class="edge">
<title>Node1&#45;&gt;Node5</title>
<g id="a_edge4_Node000001_Node000005"><a xlink:title=" ">
<path fill="none" stroke="#63b8ff" d="M438.52,-54.83C392.86,-47.05 326.15,-34.99 259.04,-19.59"/>
<polygon fill="#63b8ff" stroke="#63b8ff" points="259.84,-16.18 249.31,-17.33 258.25,-23 259.84,-16.18"/>
</a>
</g>
</g>
<!-- Node6 -->
<g id="Node000006" class="node">
<title>Node6</title>
<g id="a_Node000006"><a xlink:title=" ">
<polygon fill="#e0e0e0" stroke="#999999" points="314,-19.25 265.75,-19.25 265.75,0 314,0 314,-19.25"/>
<text text-anchor="middle" x="289.88" y="-5.75" font-family="Helvetica,sans-Serif" font-size="10.00">cstddef</text>
</a>
</g>
</g>
<!-- Node1&#45;&gt;Node6 -->
<g id="edge5_Node000001_Node000006" class="edge">
<title>Node1&#45;&gt;Node6</title>
<g id="a_edge5_Node000001_Node000006"><a xlink:title=" ">
<path fill="none" stroke="#63b8ff" d="M459.16,-54.82C426.9,-46.4 377.23,-33.44 325.46,-19.92"/>
<polygon fill="#63b8ff" stroke="#63b8ff" points="326.41,-16.55 315.85,-17.41 324.64,-23.33 326.41,-16.55"/>
</a>
</g>
</g>
<!-- Node7 -->
<g id="Node000007" class="node">
<title>Node7</title>
<g id="a_Node000007"><a xlink:title=" ">
<polygon fill="#e0e0e0" stroke="#999999" points="425.88,-19.25 331.88,-19.25 331.88,0 425.88,0 425.88,-19.25"/>
<text text-anchor="middle" x="378.88" y="-5.75" font-family="Helvetica,sans-Serif" font-size="10.00">condition_variable</text>
</a>
</g>
</g>
<!-- Node1&#45;&gt;Node7 -->
<g id="edge6_Node000001_Node000007" class="edge">
<title>Node1&#45;&gt;Node7</title>
<g id="a_edge6_Node000001_Node000007"><a xlink:title=" ">
<path fill="none" stroke="#63b8ff" d="M474.37,-54.84C456.36,-46.5 429.35,-34 408.65,-24.41"/>
<polygon fill="#63b8ff" stroke="#63b8ff" points="410.4,-21.36 399.85,-20.34 407.46,-27.72 410.4,-21.36"/>
</a>
</g>
</g>
<!-- Node8 -->
<g id="Node000008" class="node">
<title>Node8</title>
<g id="a_Node000008"><a xlink:title=" ">
<polygon fill="#e0e0e0" stroke="#999999" points="484.25,-19.25 443.5,-19.25 443.5,0 484.25,0 484.25,-19.25"/>
<text text-anchor="middle" x="463.88" y="-5.75" font-family="Helvetica,sans-Serif" font-size="10.00">future</text>
</a>
</g>
</g>
<!-- Node1&#45;&gt;Node8 -->
<g id="edge7_Node000001_Node000008" class="edge">
<title>Node1&#45;&gt;Node8</title>
<g id="a_edge7_Node000001_Node000008"><a xlink:title=" ">
<path fill="none" stroke="#63b8ff" d="M488.92,-55.08C484.99,-48.11 479.36,-38.12 474.44,-29.37"/>
<polygon fill="#63b8ff" stroke="#63b8ff" points="477.64,-27.92 469.68,-20.93 471.54,-31.36 477.64,-27.92"/>
</a>
</g>
</g>
<!-- Node9 -->
<g id="Node000009" class="node">
<title>Node9</title>
<g id="a_Node000009"><a xlink:title=" ">
<polygon fill="#e0e0e0" stroke="#999999" points="545.38,-19.25 502.38,-19.25 502.38,0 545.38,0 545.38,-19.25"/>
<text text-anchor="middle" x="523.88" y="-5.75" font-family="Helvetica,sans-Serif" font-size="10.00">mutex</text>
</a>
</g>
</g>
<!-- Node1&#45;&gt;Node9 -->
<g id="edge8_Node000001_Node000009" class="edge">
<title>Node1&#45;&gt;Node9</title>
<g id="a_edge8_Node000001_Node000009"><a xlink:title=" ">
<path fill="none" stroke="#63b8ff" d="M498.83,-55.08C502.76,-48.11 508.39,-38.12 513.31,-29.37"/>
<polygon fill="#63b8ff" stroke="#63b8ff" points="516.21,-31.36 518.07,-20.93 510.11,-27.92 516.21,-31.36"/>
</a>
</g>
</g>
<!-- Node10 -->
<g id="Node000010" class="node">
<title>Node10</title>
<g id="a_Node000010"><a xlink:title=" ">
<polygon fill="#e0e0e0" stroke="#999999" points="606.38,-19.25 563.38,-19.25 563.38,0 606.38,0 606.38,-19.25"/>
<text text-anchor="middle" x="584.88" y="-5.75" font-family="Helvetica,sans-Serif" font-size="10.00">vector</text>
</a>
</g>
</g>
<!-- Node1&#45;&gt;Node10 -->
<g id="edge9_Node000001_Node000010" class="edge">
<title>Node1&#45;&gt;Node10</title>
<g id="a_edge9_Node000001_Node000010"><a xlink:title=" ">
<path fill="none" stroke="#63b8ff" d="M509.31,-54.84C523.04,-46.81 543.37,-34.91 559.49,-25.48"/>
<polygon fill="#63b8ff" stroke="#63b8ff" points="561.19,-28.54 568.06,-20.47 557.66,-22.5 561.19,-28.54"/>
</a>
</g>
</g>
<!-- Node11 -->
<g id="Node000011" class="node">
<title>Node11</title>
<g id="a_Node000011"><a xlink:title=" ">
<polygon fill="#e0e0e0" stroke="#999999" points="667,-19.25 624.75,-19.25 624.75,0 667,0 667,-19.25"/>
<text text-anchor="middle" x="645.88" y="-5.75" font-family="Helvetica,sans-Serif" font-size="10.00">queue</text>
</a>
</g>
</g>
<!-- Node1&#45;&gt;Node11 -->
<g id="edge10_Node000001_Node000011" class="edge">
<title>Node1&#45;&gt;Node11</title>
<g id="a_edge10_Node000001_Node000011"><a xlink:title=" ">
<path fill="none" stroke="#63b8ff" d="M519.66,-54.84C545.57,-45.77 585.56,-31.75 613.57,-21.94"/>
<polygon fill="#63b8ff" stroke="#63b8ff" points="614.69,-25.26 622.97,-18.65 612.37,-18.65 614.69,-25.26"/>
</a>
</g>
</g>
<!-- Node12 -->
<g id="Node000012" class="node">
<title>Node12</title>
<g id="a_Node000012"><a xlink:title=" ">
<polygon fill="#e0e0e0" stroke="#999999" points="744.25,-19.25 685.5,-19.25 685.5,0 744.25,0 744.25,-19.25"/>
<text text-anchor="middle" x="714.88" y="-5.75" font-family="Helvetica,sans-Serif" font-size="10.00">stdexcept</text>
</a>
</g>
</g>
<!-- Node1&#45;&gt;Node12 -->
<g id="edge11_Node000001_Node000012" class="edge">
<title>Node1&#45;&gt;Node12</title>
<g id="a_edge11_Node000001_Node000012"><a xlink:title=" ">
<path fill="none" stroke="#63b8ff" d="M531.62,-54.78C571.2,-45.24 633.2,-30.3 673.94,-20.49"/>
<polygon fill="#63b8ff" stroke="#63b8ff" points="674.71,-23.9 683.61,-18.16 673.07,-17.1 674.71,-23.9"/>
</a>
</g>
</g>
<!-- Node13 -->
<g id="Node000013" class="node">
<title>Node13</title>
<g id="a_Node000013"><a xlink:title=" ">
<polygon fill="#e0e0e0" stroke="#999999" points="819.88,-19.25 761.88,-19.25 761.88,0 819.88,0 819.88,-19.25"/>
<text text-anchor="middle" x="790.88" y="-5.75" font-family="Helvetica,sans-Serif" font-size="10.00">functional</text>
</a>
</g>
</g>
<!-- Node1&#45;&gt;Node13 -->
<g id="edge12_Node000001_Node000013" class="edge">
<title>Node1&#45;&gt;Node13</title>
<g id="a_edge12_Node000001_Node000013"><a xlink:title=" ">
<path fill="none" stroke="#63b8ff" d="M550.62,-54.98C600.74,-46.92 676.05,-34.34 750.48,-19.65"/>
<polygon fill="#63b8ff" stroke="#63b8ff" points="750.84,-23.14 759.96,-17.76 749.47,-16.28 750.84,-23.14"/>
</a>
</g>
</g>
<!-- Node14 -->
<g id="Node000014" class="node">
<title>Node14</title>
<g id="a_Node000014"><a xlink:title=" ">
<polygon fill="#e0e0e0" stroke="#999999" points="881.38,-19.25 838.38,-19.25 838.38,0 881.38,0 881.38,-19.25"/>
<text text-anchor="middle" x="859.88" y="-5.75" font-family="Helvetica,sans-Serif" font-size="10.00">thread</text>
</a>
</g>
</g>
<!-- Node1&#45;&gt;Node14 -->
<g id="edge13_Node000001_Node000014" class="edge">
<title>Node1&#45;&gt;Node14</title>
<g id="a_edge13_Node000001_Node000014"><a xlink:title=" ">
<path fill="none" stroke="#63b8ff" d="M550.58,-58.75C615.18,-52.37 724.03,-39.99 826.75,-19.41"/>
<polygon fill="#63b8ff" stroke="#63b8ff" points="827.37,-22.86 836.47,-17.43 825.97,-16 827.37,-22.86"/>
</a>
</g>
</g>
<!-- Node15 -->
<g id="Node000015" class="node">
<title>Node15</title>
<g id="a_Node000015"><a xlink:title=" ">
<polygon fill="#e0e0e0" stroke="#999999" points="950.12,-19.25 899.62,-19.25 899.62,0 950.12,0 950.12,-19.25"/>
<text text-anchor="middle" x="924.88" y="-5.75" font-family="Helvetica,sans-Serif" font-size="10.00">numeric</text>
</a>
</g>
</g>
<!-- Node1&#45;&gt;Node15 -->
<g id="edge14_Node000001_Node000015" class="edge">
<title>Node1&#45;&gt;Node15</title>
<g id="a_edge14_Node000001_Node000015"><a xlink:title=" ">
<path fill="none" stroke="#63b8ff" d="M550.44,-59.96C625.58,-54.22 762.57,-41.88 888.37,-19.49"/>
<polygon fill="#63b8ff" stroke="#63b8ff" points="888.63,-22.99 897.85,-17.77 887.38,-16.11 888.63,-22.99"/>
</a>
</g>
</g>
</g>
</svg>
